<mxfile host="65bd71144e">
    <diagram id="C5RBs43oDa-KdzZeNtuy" name="Page-1">
        <mxGraphModel dx="1275" dy="1504" grid="1" gridSize="10" guides="1" tooltips="1" connect="1" arrows="1" fold="1" page="1" pageScale="1" pageWidth="827" pageHeight="1169" math="0" shadow="0">
            <root>
                <mxCell id="WIyWlLk6GJQsqaUBKTNV-0"/>
                <mxCell id="WIyWlLk6GJQsqaUBKTNV-1" parent="WIyWlLk6GJQsqaUBKTNV-0"/>
                <mxCell id="Sy4ABJMf8QMetGnbk_ve-0" value="Residuo" style="swimlane;fontStyle=1;align=center;verticalAlign=top;childLayout=stackLayout;horizontal=1;startSize=26;horizontalStack=0;resizeParent=1;resizeParentMax=0;resizeLast=0;collapsible=1;marginBottom=0;hachureGap=4;pointerEvents=0;fillColor=#60a917;strokeColor=#2D7600;fontColor=#ffffff;" parent="WIyWlLk6GJQsqaUBKTNV-1" vertex="1">
                    <mxGeometry x="85" y="80" width="200" height="98" as="geometry"/>
                </mxCell>
                <mxCell id="Sy4ABJMf8QMetGnbk_ve-1" value="+ Categoria: Categoria[]&#10;+ Descripcion: string&#10;+ UnidadMedida: string&#10;+ Habilitaciones: Habilitaciones[]" style="text;strokeColor=none;fillColor=none;align=left;verticalAlign=top;spacingLeft=4;spacingRight=4;overflow=hidden;rotatable=0;points=[[0,0.5],[1,0.5]];portConstraint=eastwest;" parent="Sy4ABJMf8QMetGnbk_ve-0" vertex="1">
                    <mxGeometry y="26" width="200" height="64" as="geometry"/>
                </mxCell>
                <mxCell id="Sy4ABJMf8QMetGnbk_ve-2" value="" style="line;strokeWidth=1;fillColor=none;align=left;verticalAlign=middle;spacingTop=-1;spacingLeft=3;spacingRight=3;rotatable=0;labelPosition=right;points=[];portConstraint=eastwest;" parent="Sy4ABJMf8QMetGnbk_ve-0" vertex="1">
                    <mxGeometry y="90" width="200" height="8" as="geometry"/>
                </mxCell>
                <mxCell id="Sy4ABJMf8QMetGnbk_ve-21" style="edgeStyle=orthogonalEdgeStyle;rounded=0;orthogonalLoop=1;jettySize=auto;html=1;endArrow=diamondThin;endFill=0;startSize=14;endSize=14;sourcePerimeterSpacing=0;targetPerimeterSpacing=0;" parent="WIyWlLk6GJQsqaUBKTNV-1" source="Sy4ABJMf8QMetGnbk_ve-0" target="Sy4ABJMf8QMetGnbk_ve-4" edge="1">
                    <mxGeometry relative="1" as="geometry">
                        <Array as="points">
                            <mxPoint x="330" y="134"/>
                            <mxPoint x="330" y="134"/>
                        </Array>
                    </mxGeometry>
                </mxCell>
                <mxCell id="Sy4ABJMf8QMetGnbk_ve-4" value="Publicacion" style="swimlane;fontStyle=1;align=center;verticalAlign=top;childLayout=stackLayout;horizontal=1;startSize=26;horizontalStack=0;resizeParent=1;resizeParentMax=0;resizeLast=0;collapsible=1;marginBottom=0;hachureGap=4;pointerEvents=0;fillColor=#60a917;strokeColor=#2D7600;fontColor=#ffffff;" parent="WIyWlLk6GJQsqaUBKTNV-1" vertex="1">
                    <mxGeometry x="380" y="70" width="160" height="158" as="geometry">
                        <mxRectangle x="380" y="80" width="100" height="26" as="alternateBounds"/>
                    </mxGeometry>
                </mxCell>
                <mxCell id="Sy4ABJMf8QMetGnbk_ve-5" value="+ Residuo: Residuo&#10;+ Precio: double&#10;+ Moneda: string&#10;+ Cantidad: int&#10;+ LugarRetiro: string&#10;+ Vendedor: Empresa&#10;+ Descripcion: string&#10;+ Comprado: bool" style="text;strokeColor=none;fillColor=none;align=left;verticalAlign=top;spacingLeft=4;spacingRight=4;overflow=hidden;rotatable=0;points=[[0,0.5],[1,0.5]];portConstraint=eastwest;" parent="Sy4ABJMf8QMetGnbk_ve-4" vertex="1">
                    <mxGeometry y="26" width="160" height="124" as="geometry"/>
                </mxCell>
                <mxCell id="Sy4ABJMf8QMetGnbk_ve-6" value="" style="line;strokeWidth=1;fillColor=none;align=left;verticalAlign=middle;spacingTop=-1;spacingLeft=3;spacingRight=3;rotatable=0;labelPosition=right;points=[];portConstraint=eastwest;" parent="Sy4ABJMf8QMetGnbk_ve-4" vertex="1">
                    <mxGeometry y="150" width="160" height="8" as="geometry"/>
                </mxCell>
                <mxCell id="Sy4ABJMf8QMetGnbk_ve-22" value="Extends" style="edgeStyle=orthogonalEdgeStyle;rounded=0;orthogonalLoop=1;jettySize=auto;html=1;endArrow=block;endFill=0;startSize=14;endSize=14;sourcePerimeterSpacing=0;targetPerimeterSpacing=0;" parent="WIyWlLk6GJQsqaUBKTNV-1" source="Sy4ABJMf8QMetGnbk_ve-8" target="Sy4ABJMf8QMetGnbk_ve-4" edge="1">
                    <mxGeometry x="-0.2308" relative="1" as="geometry">
                        <Array as="points">
                            <mxPoint x="460" y="240"/>
                            <mxPoint x="460" y="240"/>
                        </Array>
                        <mxPoint as="offset"/>
                    </mxGeometry>
                </mxCell>
                <mxCell id="Sy4ABJMf8QMetGnbk_ve-8" value="PublicacionRecurrente" style="swimlane;fontStyle=1;align=center;verticalAlign=top;childLayout=stackLayout;horizontal=1;startSize=26;horizontalStack=0;resizeParent=1;resizeParentMax=0;resizeLast=0;collapsible=1;marginBottom=0;hachureGap=4;pointerEvents=0;fillColor=#60a917;strokeColor=#2D7600;fontColor=#ffffff;" parent="WIyWlLk6GJQsqaUBKTNV-1" vertex="1">
                    <mxGeometry x="380" y="280" width="180" height="58" as="geometry"/>
                </mxCell>
                <mxCell id="Sy4ABJMf8QMetGnbk_ve-9" value="+ FrecuenciaAnualRestock: int" style="text;strokeColor=none;fillColor=none;align=left;verticalAlign=top;spacingLeft=4;spacingRight=4;overflow=hidden;rotatable=0;points=[[0,0.5],[1,0.5]];portConstraint=eastwest;" parent="Sy4ABJMf8QMetGnbk_ve-8" vertex="1">
                    <mxGeometry y="26" width="180" height="24" as="geometry"/>
                </mxCell>
                <mxCell id="Sy4ABJMf8QMetGnbk_ve-10" value="" style="line;strokeWidth=1;fillColor=none;align=left;verticalAlign=middle;spacingTop=-1;spacingLeft=3;spacingRight=3;rotatable=0;labelPosition=right;points=[];portConstraint=eastwest;" parent="Sy4ABJMf8QMetGnbk_ve-8" vertex="1">
                    <mxGeometry y="50" width="180" height="8" as="geometry"/>
                </mxCell>
                <mxCell id="Sy4ABJMf8QMetGnbk_ve-25" style="edgeStyle=orthogonalEdgeStyle;rounded=0;orthogonalLoop=1;jettySize=auto;html=1;endArrow=diamondThin;endFill=0;startSize=14;endSize=14;sourcePerimeterSpacing=0;targetPerimeterSpacing=0;" parent="WIyWlLk6GJQsqaUBKTNV-1" source="Sy4ABJMf8QMetGnbk_ve-14" target="Sy4ABJMf8QMetGnbk_ve-4" edge="1">
                    <mxGeometry relative="1" as="geometry">
                        <Array as="points">
                            <mxPoint x="600" y="134"/>
                            <mxPoint x="600" y="134"/>
                        </Array>
                    </mxGeometry>
                </mxCell>
                <mxCell id="Sy4ABJMf8QMetGnbk_ve-28" style="edgeStyle=orthogonalEdgeStyle;rounded=0;orthogonalLoop=1;jettySize=auto;html=1;endArrow=open;endFill=0;startSize=14;endSize=14;sourcePerimeterSpacing=0;targetPerimeterSpacing=0;dashed=1;" parent="WIyWlLk6GJQsqaUBKTNV-1" source="Sy4ABJMf8QMetGnbk_ve-14" target="Sy4ABJMf8QMetGnbk_ve-17" edge="1">
                    <mxGeometry relative="1" as="geometry">
                        <mxPoint x="700" y="270" as="targetPoint"/>
                        <Array as="points">
                            <mxPoint x="700" y="240"/>
                            <mxPoint x="700" y="240"/>
                        </Array>
                    </mxGeometry>
                </mxCell>
                <mxCell id="Sy4ABJMf8QMetGnbk_ve-14" value="Empresa" style="swimlane;fontStyle=1;align=center;verticalAlign=top;childLayout=stackLayout;horizontal=1;startSize=26;horizontalStack=0;resizeParent=1;resizeParentMax=0;resizeLast=0;collapsible=1;marginBottom=0;hachureGap=4;pointerEvents=0;gradientColor=#b3b3b3;fillColor=#f5f5f5;strokeColor=#666666;" parent="WIyWlLk6GJQsqaUBKTNV-1" vertex="1">
                    <mxGeometry x="620" y="80" width="170" height="138" as="geometry"/>
                </mxCell>
                <mxCell id="Sy4ABJMf8QMetGnbk_ve-15" value="+ Nombre: string&#10;+ Lugar: string&#10;+ Descripcion: string&#10;+ Rubro: string&#10;+ Contacto: string&#10;+ PalabrasClave: string[]&#10;+Â " style="text;strokeColor=none;fillColor=none;align=left;verticalAlign=top;spacingLeft=4;spacingRight=4;overflow=hidden;rotatable=0;points=[[0,0.5],[1,0.5]];portConstraint=eastwest;" parent="Sy4ABJMf8QMetGnbk_ve-14" vertex="1">
                    <mxGeometry y="26" width="170" height="104" as="geometry"/>
                </mxCell>
                <mxCell id="Sy4ABJMf8QMetGnbk_ve-16" value="" style="line;strokeWidth=1;fillColor=none;align=left;verticalAlign=middle;spacingTop=-1;spacingLeft=3;spacingRight=3;rotatable=0;labelPosition=right;points=[];portConstraint=eastwest;" parent="Sy4ABJMf8QMetGnbk_ve-14" vertex="1">
                    <mxGeometry y="130" width="170" height="8" as="geometry"/>
                </mxCell>
                <mxCell id="Sy4ABJMf8QMetGnbk_ve-117" style="edgeStyle=orthogonalEdgeStyle;rounded=0;jumpStyle=arc;jumpSize=11;orthogonalLoop=1;jettySize=auto;html=1;dashed=1;endArrow=open;endFill=0;startSize=14;endSize=14;sourcePerimeterSpacing=0;targetPerimeterSpacing=0;" parent="WIyWlLk6GJQsqaUBKTNV-1" source="Sy4ABJMf8QMetGnbk_ve-17" target="Sy4ABJMf8QMetGnbk_ve-45" edge="1">
                    <mxGeometry relative="1" as="geometry">
                        <Array as="points">
                            <mxPoint x="460" y="370"/>
                        </Array>
                    </mxGeometry>
                </mxCell>
                <mxCell id="Sy4ABJMf8QMetGnbk_ve-17" value="Autenticacion" style="swimlane;fontStyle=1;align=center;verticalAlign=top;childLayout=stackLayout;horizontal=1;startSize=26;horizontalStack=0;resizeParent=1;resizeParentMax=0;resizeLast=0;collapsible=1;marginBottom=0;hachureGap=4;pointerEvents=0;fillColor=#f5f5f5;strokeColor=#666666;gradientColor=#b3b3b3;" parent="WIyWlLk6GJQsqaUBKTNV-1" vertex="1">
                    <mxGeometry x="620" y="290" width="310" height="110" as="geometry"/>
                </mxCell>
                <mxCell id="Sy4ABJMf8QMetGnbk_ve-18" value="+ Instancia : Autenticacion" style="text;strokeColor=none;fillColor=none;align=left;verticalAlign=top;spacingLeft=4;spacingRight=4;overflow=hidden;rotatable=0;points=[[0,0.5],[1,0.5]];portConstraint=eastwest;fontStyle=4" parent="Sy4ABJMf8QMetGnbk_ve-17" vertex="1">
                    <mxGeometry y="26" width="310" height="24" as="geometry"/>
                </mxCell>
                <mxCell id="Sy4ABJMf8QMetGnbk_ve-19" value="" style="line;strokeWidth=1;fillColor=none;align=left;verticalAlign=middle;spacingTop=-1;spacingLeft=3;spacingRight=3;rotatable=0;labelPosition=right;points=[];portConstraint=eastwest;" parent="Sy4ABJMf8QMetGnbk_ve-17" vertex="1">
                    <mxGeometry y="50" width="310" height="8" as="geometry"/>
                </mxCell>
                <mxCell id="Sy4ABJMf8QMetGnbk_ve-20" value="- Autenticacion()&#10;+ ValidarUsuario(string, string) : boolean" style="text;strokeColor=none;fillColor=none;align=left;verticalAlign=top;spacingLeft=4;spacingRight=4;overflow=hidden;rotatable=0;points=[[0,0.5],[1,0.5]];portConstraint=eastwest;" parent="Sy4ABJMf8QMetGnbk_ve-17" vertex="1">
                    <mxGeometry y="58" width="310" height="52" as="geometry"/>
                </mxCell>
                <mxCell id="Sy4ABJMf8QMetGnbk_ve-23" value="1" style="text;html=1;align=center;verticalAlign=middle;resizable=0;points=[];autosize=1;strokeColor=none;fillColor=none;" parent="WIyWlLk6GJQsqaUBKTNV-1" vertex="1">
                    <mxGeometry x="300" y="110" width="20" height="20" as="geometry"/>
                </mxCell>
                <mxCell id="Sy4ABJMf8QMetGnbk_ve-24" value="0..*" style="text;html=1;align=center;verticalAlign=middle;resizable=0;points=[];autosize=1;strokeColor=none;fillColor=none;" parent="WIyWlLk6GJQsqaUBKTNV-1" vertex="1">
                    <mxGeometry x="350" y="110" width="30" height="20" as="geometry"/>
                </mxCell>
                <mxCell id="Sy4ABJMf8QMetGnbk_ve-26" value="0..*" style="text;html=1;align=center;verticalAlign=middle;resizable=0;points=[];autosize=1;strokeColor=none;fillColor=none;" parent="WIyWlLk6GJQsqaUBKTNV-1" vertex="1">
                    <mxGeometry x="540" y="110" width="30" height="20" as="geometry"/>
                </mxCell>
                <mxCell id="Sy4ABJMf8QMetGnbk_ve-27" value="1" style="text;html=1;align=center;verticalAlign=middle;resizable=0;points=[];autosize=1;strokeColor=none;fillColor=none;" parent="WIyWlLk6GJQsqaUBKTNV-1" vertex="1">
                    <mxGeometry x="600" y="110" width="20" height="20" as="geometry"/>
                </mxCell>
                <mxCell id="Sy4ABJMf8QMetGnbk_ve-35" style="edgeStyle=orthogonalEdgeStyle;rounded=0;orthogonalLoop=1;jettySize=auto;html=1;dashed=1;endArrow=open;endFill=0;startSize=14;endSize=14;sourcePerimeterSpacing=0;targetPerimeterSpacing=0;" parent="WIyWlLk6GJQsqaUBKTNV-1" source="Sy4ABJMf8QMetGnbk_ve-29" target="Sy4ABJMf8QMetGnbk_ve-17" edge="1">
                    <mxGeometry relative="1" as="geometry">
                        <Array as="points">
                            <mxPoint x="870" y="200"/>
                            <mxPoint x="870" y="200"/>
                        </Array>
                    </mxGeometry>
                </mxCell>
                <mxCell id="Sy4ABJMf8QMetGnbk_ve-29" value="Emprendedor" style="swimlane;fontStyle=1;align=center;verticalAlign=top;childLayout=stackLayout;horizontal=1;startSize=26;horizontalStack=0;resizeParent=1;resizeParentMax=0;resizeLast=0;collapsible=1;marginBottom=0;hachureGap=4;pointerEvents=0;gradientColor=#b3b3b3;fillColor=#f5f5f5;strokeColor=#666666;" parent="WIyWlLk6GJQsqaUBKTNV-1" vertex="1">
                    <mxGeometry x="820" y="80" width="190" height="128" as="geometry"/>
                </mxCell>
                <mxCell id="Sy4ABJMf8QMetGnbk_ve-30" value="+ Nombre: string&#10;+ Lugar: string&#10;+ Rubro: string&#10;+ Habilitaciones: Habilitaciones[]&#10;+ Especializacion: string&#10;+" style="text;strokeColor=none;fillColor=none;align=left;verticalAlign=top;spacingLeft=4;spacingRight=4;overflow=hidden;rotatable=0;points=[[0,0.5],[1,0.5]];portConstraint=eastwest;" parent="Sy4ABJMf8QMetGnbk_ve-29" vertex="1">
                    <mxGeometry y="26" width="190" height="94" as="geometry"/>
                </mxCell>
                <mxCell id="Sy4ABJMf8QMetGnbk_ve-31" value="" style="line;strokeWidth=1;fillColor=none;align=left;verticalAlign=middle;spacingTop=-1;spacingLeft=3;spacingRight=3;rotatable=0;labelPosition=right;points=[];portConstraint=eastwest;" parent="Sy4ABJMf8QMetGnbk_ve-29" vertex="1">
                    <mxGeometry y="120" width="190" height="8" as="geometry"/>
                </mxCell>
                <mxCell id="Sy4ABJMf8QMetGnbk_ve-32" value="&lt;&lt;interfaz&gt;&gt;&#10;IUsuario" style="swimlane;fontStyle=1;align=center;verticalAlign=top;childLayout=stackLayout;horizontal=1;startSize=40;horizontalStack=0;resizeParent=1;resizeParentMax=0;resizeLast=0;collapsible=1;marginBottom=0;hachureGap=4;pointerEvents=0;gradientColor=#b3b3b3;fillColor=#f5f5f5;strokeColor=#666666;" parent="WIyWlLk6GJQsqaUBKTNV-1" vertex="1">
                    <mxGeometry x="650" y="-60" width="160" height="72" as="geometry"/>
                </mxCell>
                <mxCell id="Sy4ABJMf8QMetGnbk_ve-33" value="+ DatosLogin: DatosLogin" style="text;strokeColor=none;fillColor=none;align=left;verticalAlign=top;spacingLeft=4;spacingRight=4;overflow=hidden;rotatable=0;points=[[0,0.5],[1,0.5]];portConstraint=eastwest;" parent="Sy4ABJMf8QMetGnbk_ve-32" vertex="1">
                    <mxGeometry y="40" width="160" height="24" as="geometry"/>
                </mxCell>
                <mxCell id="Sy4ABJMf8QMetGnbk_ve-34" value="" style="line;strokeWidth=1;fillColor=none;align=left;verticalAlign=middle;spacingTop=-1;spacingLeft=3;spacingRight=3;rotatable=0;labelPosition=right;points=[];portConstraint=eastwest;" parent="Sy4ABJMf8QMetGnbk_ve-32" vertex="1">
                    <mxGeometry y="64" width="160" height="8" as="geometry"/>
                </mxCell>
                <mxCell id="Sy4ABJMf8QMetGnbk_ve-36" value="Implements" style="edgeStyle=orthogonalEdgeStyle;rounded=0;orthogonalLoop=1;jettySize=auto;html=1;endArrow=block;endFill=0;startSize=14;endSize=14;sourcePerimeterSpacing=0;targetPerimeterSpacing=0;dashed=1;" parent="WIyWlLk6GJQsqaUBKTNV-1" source="Sy4ABJMf8QMetGnbk_ve-14" target="Sy4ABJMf8QMetGnbk_ve-32" edge="1">
                    <mxGeometry x="-0.4118" y="30" relative="1" as="geometry">
                        <mxPoint x="470" y="270" as="sourcePoint"/>
                        <mxPoint x="470" y="198" as="targetPoint"/>
                        <Array as="points">
                            <mxPoint x="700" y="40"/>
                            <mxPoint x="700" y="40"/>
                        </Array>
                        <mxPoint as="offset"/>
                    </mxGeometry>
                </mxCell>
                <mxCell id="Sy4ABJMf8QMetGnbk_ve-37" style="edgeStyle=orthogonalEdgeStyle;rounded=0;orthogonalLoop=1;jettySize=auto;html=1;endArrow=block;endFill=0;startSize=14;endSize=14;sourcePerimeterSpacing=0;targetPerimeterSpacing=0;dashed=1;" parent="WIyWlLk6GJQsqaUBKTNV-1" source="Sy4ABJMf8QMetGnbk_ve-29" target="Sy4ABJMf8QMetGnbk_ve-32" edge="1">
                    <mxGeometry relative="1" as="geometry">
                        <mxPoint x="710" y="90" as="sourcePoint"/>
                        <mxPoint x="710" y="22" as="targetPoint"/>
                        <Array as="points">
                            <mxPoint x="870" y="70"/>
                            <mxPoint x="750" y="70"/>
                        </Array>
                    </mxGeometry>
                </mxCell>
                <mxCell id="n3mDDNpbBrynmApSV0Kz-1" value="Implements" style="edgeLabel;html=1;align=center;verticalAlign=middle;resizable=0;points=[];" parent="Sy4ABJMf8QMetGnbk_ve-37" vertex="1" connectable="0">
                    <mxGeometry x="0.5" y="1" relative="1" as="geometry">
                        <mxPoint as="offset"/>
                    </mxGeometry>
                </mxCell>
                <mxCell id="Sy4ABJMf8QMetGnbk_ve-38" value="DatosLogin" style="swimlane;fontStyle=1;align=center;verticalAlign=top;childLayout=stackLayout;horizontal=1;startSize=26;horizontalStack=0;resizeParent=1;resizeParentMax=0;resizeLast=0;collapsible=1;marginBottom=0;hachureGap=4;pointerEvents=0;gradientColor=#b3b3b3;fillColor=#f5f5f5;strokeColor=#666666;" parent="WIyWlLk6GJQsqaUBKTNV-1" vertex="1">
                    <mxGeometry x="860" y="-96" width="160" height="88" as="geometry"/>
                </mxCell>
                <mxCell id="Sy4ABJMf8QMetGnbk_ve-39" value="+ NombreUsuario: string&#10;+ Contrasenia: string&#10;+ Usuario: IUsuario" style="text;strokeColor=none;fillColor=none;align=left;verticalAlign=top;spacingLeft=4;spacingRight=4;overflow=hidden;rotatable=0;points=[[0,0.5],[1,0.5]];portConstraint=eastwest;" parent="Sy4ABJMf8QMetGnbk_ve-38" vertex="1">
                    <mxGeometry y="26" width="160" height="54" as="geometry"/>
                </mxCell>
                <mxCell id="Sy4ABJMf8QMetGnbk_ve-40" value="" style="line;strokeWidth=1;fillColor=none;align=left;verticalAlign=middle;spacingTop=-1;spacingLeft=3;spacingRight=3;rotatable=0;labelPosition=right;points=[];portConstraint=eastwest;" parent="Sy4ABJMf8QMetGnbk_ve-38" vertex="1">
                    <mxGeometry y="80" width="160" height="8" as="geometry"/>
                </mxCell>
                <mxCell id="Sy4ABJMf8QMetGnbk_ve-42" style="edgeStyle=orthogonalEdgeStyle;rounded=0;orthogonalLoop=1;jettySize=auto;html=1;endArrow=diamondThin;endFill=0;startSize=14;endSize=14;sourcePerimeterSpacing=0;targetPerimeterSpacing=0;" parent="WIyWlLk6GJQsqaUBKTNV-1" source="Sy4ABJMf8QMetGnbk_ve-32" target="Sy4ABJMf8QMetGnbk_ve-38" edge="1">
                    <mxGeometry relative="1" as="geometry">
                        <mxPoint x="310" y="144" as="sourcePoint"/>
                        <mxPoint x="390" y="144" as="targetPoint"/>
                        <Array as="points">
                            <mxPoint x="810" y="-30"/>
                            <mxPoint x="810" y="-30"/>
                        </Array>
                    </mxGeometry>
                </mxCell>
                <mxCell id="Sy4ABJMf8QMetGnbk_ve-43" value="1" style="text;html=1;align=center;verticalAlign=middle;resizable=0;points=[];autosize=1;strokeColor=none;fillColor=none;" parent="WIyWlLk6GJQsqaUBKTNV-1" vertex="1">
                    <mxGeometry x="780" y="-60" width="20" height="20" as="geometry"/>
                </mxCell>
                <mxCell id="Sy4ABJMf8QMetGnbk_ve-44" value="1..*" style="text;html=1;align=center;verticalAlign=middle;resizable=0;points=[];autosize=1;strokeColor=none;fillColor=none;" parent="WIyWlLk6GJQsqaUBKTNV-1" vertex="1">
                    <mxGeometry x="830" y="-60" width="30" height="20" as="geometry"/>
                </mxCell>
                <mxCell id="Sy4ABJMf8QMetGnbk_ve-45" value="Chatbot" style="swimlane;fontStyle=1;align=center;verticalAlign=top;childLayout=stackLayout;horizontal=1;startSize=26;horizontalStack=0;resizeParent=1;resizeParentMax=0;resizeLast=0;collapsible=1;marginBottom=0;hachureGap=4;pointerEvents=0;fillColor=#fad9d5;strokeColor=#ae4132;" parent="WIyWlLk6GJQsqaUBKTNV-1" vertex="1">
                    <mxGeometry x="340" y="430" width="210" height="90" as="geometry"/>
                </mxCell>
                <mxCell id="Sy4ABJMf8QMetGnbk_ve-47" value="" style="line;strokeWidth=1;fillColor=none;align=left;verticalAlign=middle;spacingTop=-1;spacingLeft=3;spacingRight=3;rotatable=0;labelPosition=right;points=[];portConstraint=eastwest;" parent="Sy4ABJMf8QMetGnbk_ve-45" vertex="1">
                    <mxGeometry y="26" width="210" height="8" as="geometry"/>
                </mxCell>
                <mxCell id="Sy4ABJMf8QMetGnbk_ve-48" value="+ Main(string[]) : void&#10;+ EnviarMensaje(string, string) : void&#10;+ ProcesarMensaje(string) : void" style="text;strokeColor=none;fillColor=none;align=left;verticalAlign=top;spacingLeft=4;spacingRight=4;overflow=hidden;rotatable=0;points=[[0,0.5],[1,0.5]];portConstraint=eastwest;" parent="Sy4ABJMf8QMetGnbk_ve-45" vertex="1">
                    <mxGeometry y="34" width="210" height="56" as="geometry"/>
                </mxCell>
                <mxCell id="Sy4ABJMf8QMetGnbk_ve-49" value="Busqueda" style="swimlane;fontStyle=1;align=center;verticalAlign=top;childLayout=stackLayout;horizontal=1;startSize=26;horizontalStack=0;resizeParent=1;resizeParentMax=0;resizeLast=0;collapsible=1;marginBottom=0;hachureGap=4;pointerEvents=0;fillColor=#fad9d5;strokeColor=#ae4132;" parent="WIyWlLk6GJQsqaUBKTNV-1" vertex="1">
                    <mxGeometry x="660" y="430" width="250" height="114" as="geometry"/>
                </mxCell>
                <mxCell id="Sy4ABJMf8QMetGnbk_ve-55" value="+ Instancia : Busqueda&#10;+ FiltrosPosibles: enum" style="text;strokeColor=none;fillColor=none;align=left;verticalAlign=top;spacingLeft=4;spacingRight=4;overflow=hidden;rotatable=0;points=[[0,0.5],[1,0.5]];portConstraint=eastwest;fontStyle=4" parent="Sy4ABJMf8QMetGnbk_ve-49" vertex="1">
                    <mxGeometry y="26" width="250" height="30" as="geometry"/>
                </mxCell>
                <mxCell id="Sy4ABJMf8QMetGnbk_ve-50" value="" style="line;strokeWidth=1;fillColor=none;align=left;verticalAlign=middle;spacingTop=-1;spacingLeft=3;spacingRight=3;rotatable=0;labelPosition=right;points=[];portConstraint=eastwest;" parent="Sy4ABJMf8QMetGnbk_ve-49" vertex="1">
                    <mxGeometry y="56" width="250" height="8" as="geometry"/>
                </mxCell>
                <mxCell id="Sy4ABJMf8QMetGnbk_ve-51" value="- Busqueda()&#10;+ BuscarPublicaciones(Dictionary&#10;&lt;FiltrosPosibles, object&gt;) : List&lt;Publicacion&gt;" style="text;strokeColor=none;fillColor=none;align=left;verticalAlign=top;spacingLeft=4;spacingRight=4;overflow=hidden;rotatable=0;points=[[0,0.5],[1,0.5]];portConstraint=eastwest;" parent="Sy4ABJMf8QMetGnbk_ve-49" vertex="1">
                    <mxGeometry y="64" width="250" height="50" as="geometry"/>
                </mxCell>
                <mxCell id="Sy4ABJMf8QMetGnbk_ve-57" style="edgeStyle=orthogonalEdgeStyle;rounded=0;orthogonalLoop=1;jettySize=auto;html=1;dashed=1;endArrow=open;endFill=0;startSize=14;endSize=14;sourcePerimeterSpacing=0;targetPerimeterSpacing=0;" parent="WIyWlLk6GJQsqaUBKTNV-1" source="Sy4ABJMf8QMetGnbk_ve-17" target="Sy4ABJMf8QMetGnbk_ve-38" edge="1">
                    <mxGeometry relative="1" as="geometry">
                        <mxPoint x="880" y="198" as="sourcePoint"/>
                        <mxPoint x="880" y="270" as="targetPoint"/>
                        <Array as="points">
                            <mxPoint x="1030" y="315"/>
                            <mxPoint x="1030" y="-42"/>
                        </Array>
                    </mxGeometry>
                </mxCell>
                <mxCell id="Sy4ABJMf8QMetGnbk_ve-58" style="edgeStyle=orthogonalEdgeStyle;rounded=0;orthogonalLoop=1;jettySize=auto;html=1;endArrow=open;endFill=0;startSize=14;endSize=14;sourcePerimeterSpacing=0;targetPerimeterSpacing=0;dashed=1;" parent="WIyWlLk6GJQsqaUBKTNV-1" source="Sy4ABJMf8QMetGnbk_ve-49" target="Sy4ABJMf8QMetGnbk_ve-45" edge="1">
                    <mxGeometry relative="1" as="geometry">
                        <mxPoint x="710" y="198" as="sourcePoint"/>
                        <mxPoint x="710" y="270" as="targetPoint"/>
                        <Array as="points">
                            <mxPoint x="630" y="450"/>
                            <mxPoint x="630" y="450"/>
                        </Array>
                    </mxGeometry>
                </mxCell>
                <mxCell id="Sy4ABJMf8QMetGnbk_ve-59" value="&lt;&lt;interfaz&gt;&gt;&#10;IDatabase" style="swimlane;fontStyle=1;align=center;verticalAlign=top;childLayout=stackLayout;horizontal=1;startSize=40;horizontalStack=0;resizeParent=1;resizeParentMax=0;resizeLast=0;collapsible=1;marginBottom=0;hachureGap=4;pointerEvents=0;fillColor=#cce5ff;strokeColor=#36393d;" parent="WIyWlLk6GJQsqaUBKTNV-1" vertex="1">
                    <mxGeometry x="130" y="670" width="160" height="120" as="geometry"/>
                </mxCell>
                <mxCell id="Sy4ABJMf8QMetGnbk_ve-61" value="" style="line;strokeWidth=1;fillColor=none;align=left;verticalAlign=middle;spacingTop=-1;spacingLeft=3;spacingRight=3;rotatable=0;labelPosition=right;points=[];portConstraint=eastwest;" parent="Sy4ABJMf8QMetGnbk_ve-59" vertex="1">
                    <mxGeometry y="40" width="160" height="8" as="geometry"/>
                </mxCell>
                <mxCell id="Sy4ABJMf8QMetGnbk_ve-62" value="+ Insertar&lt;T&gt;(T) : void&#10;+ Actualizar&lt;T&gt;(T) : void&#10;+ Obtener&lt;T&gt;() : T[]&#10;+ Eliminar&lt;T&gt;(T) : void" style="text;strokeColor=none;fillColor=none;align=left;verticalAlign=top;spacingLeft=4;spacingRight=4;overflow=hidden;rotatable=0;points=[[0,0.5],[1,0.5]];portConstraint=eastwest;" parent="Sy4ABJMf8QMetGnbk_ve-59" vertex="1">
                    <mxGeometry y="48" width="160" height="72" as="geometry"/>
                </mxCell>
                <mxCell id="Sy4ABJMf8QMetGnbk_ve-63" value="DataSourceArchivos" style="swimlane;fontStyle=1;align=center;verticalAlign=top;childLayout=stackLayout;horizontal=1;startSize=28;horizontalStack=0;resizeParent=1;resizeParentMax=0;resizeLast=0;collapsible=1;marginBottom=0;hachureGap=4;pointerEvents=0;fillColor=#cce5ff;strokeColor=#36393d;" parent="WIyWlLk6GJQsqaUBKTNV-1" vertex="1">
                    <mxGeometry x="130" y="848" width="160" height="36" as="geometry"/>
                </mxCell>
                <mxCell id="Sy4ABJMf8QMetGnbk_ve-64" value="" style="line;strokeWidth=1;fillColor=none;align=left;verticalAlign=middle;spacingTop=-1;spacingLeft=3;spacingRight=3;rotatable=0;labelPosition=right;points=[];portConstraint=eastwest;" parent="Sy4ABJMf8QMetGnbk_ve-63" vertex="1">
                    <mxGeometry y="28" width="160" height="8" as="geometry"/>
                </mxCell>
                <mxCell id="Sy4ABJMf8QMetGnbk_ve-67" value="Implements" style="edgeStyle=orthogonalEdgeStyle;rounded=0;orthogonalLoop=1;jettySize=auto;html=1;endArrow=block;endFill=0;startSize=14;endSize=14;sourcePerimeterSpacing=0;targetPerimeterSpacing=0;dashed=1;" parent="WIyWlLk6GJQsqaUBKTNV-1" source="Sy4ABJMf8QMetGnbk_ve-63" target="Sy4ABJMf8QMetGnbk_ve-59" edge="1">
                    <mxGeometry relative="1" as="geometry">
                        <mxPoint x="209.70999999999998" y="876" as="sourcePoint"/>
                        <mxPoint x="209.70999999999998" y="808" as="targetPoint"/>
                        <Array as="points"/>
                    </mxGeometry>
                </mxCell>
                <mxCell id="Sy4ABJMf8QMetGnbk_ve-68" style="edgeStyle=orthogonalEdgeStyle;rounded=0;orthogonalLoop=1;jettySize=auto;html=1;dashed=1;endArrow=open;endFill=0;startSize=14;endSize=14;sourcePerimeterSpacing=0;targetPerimeterSpacing=0;jumpStyle=arc;jumpSize=11;" parent="WIyWlLk6GJQsqaUBKTNV-1" source="Sy4ABJMf8QMetGnbk_ve-29" target="Sy4ABJMf8QMetGnbk_ve-49" edge="1">
                    <mxGeometry relative="1" as="geometry">
                        <Array as="points">
                            <mxPoint x="960" y="450"/>
                        </Array>
                    </mxGeometry>
                </mxCell>
                <mxCell id="Sy4ABJMf8QMetGnbk_ve-71" style="edgeStyle=orthogonalEdgeStyle;rounded=0;orthogonalLoop=1;jettySize=auto;html=1;endArrow=open;endFill=0;startSize=14;endSize=14;sourcePerimeterSpacing=0;targetPerimeterSpacing=0;dashed=1;" parent="WIyWlLk6GJQsqaUBKTNV-1" source="Sy4ABJMf8QMetGnbk_ve-14" target="Sy4ABJMf8QMetGnbk_ve-4" edge="1">
                    <mxGeometry relative="1" as="geometry">
                        <mxPoint x="710" y="230" as="sourcePoint"/>
                        <mxPoint x="710" y="270" as="targetPoint"/>
                        <Array as="points">
                            <mxPoint x="600" y="160"/>
                            <mxPoint x="600" y="160"/>
                        </Array>
                    </mxGeometry>
                </mxCell>
                <mxCell id="Sy4ABJMf8QMetGnbk_ve-72" style="edgeStyle=orthogonalEdgeStyle;rounded=0;jumpStyle=arc;jumpSize=11;orthogonalLoop=1;jettySize=auto;html=1;dashed=1;endArrow=open;endFill=0;startSize=14;endSize=14;sourcePerimeterSpacing=0;targetPerimeterSpacing=0;" parent="WIyWlLk6GJQsqaUBKTNV-1" source="Sy4ABJMf8QMetGnbk_ve-29" target="Sy4ABJMf8QMetGnbk_ve-4" edge="1">
                    <mxGeometry relative="1" as="geometry">
                        <Array as="points">
                            <mxPoint x="900" y="50"/>
                            <mxPoint x="490" y="50"/>
                        </Array>
                    </mxGeometry>
                </mxCell>
                <mxCell id="Sy4ABJMf8QMetGnbk_ve-82" value="0..*" style="text;html=1;align=center;verticalAlign=middle;resizable=0;points=[];autosize=1;strokeColor=none;fillColor=none;" parent="WIyWlLk6GJQsqaUBKTNV-1" vertex="1">
                    <mxGeometry x="1060" y="565" width="30" height="20" as="geometry"/>
                </mxCell>
                <mxCell id="Sy4ABJMf8QMetGnbk_ve-83" value="1" style="text;html=1;align=center;verticalAlign=middle;resizable=0;points=[];autosize=1;strokeColor=none;fillColor=none;" parent="WIyWlLk6GJQsqaUBKTNV-1" vertex="1">
                    <mxGeometry x="1010" y="120" width="20" height="20" as="geometry"/>
                </mxCell>
                <mxCell id="Sy4ABJMf8QMetGnbk_ve-81" style="edgeStyle=orthogonalEdgeStyle;rounded=0;jumpStyle=arc;jumpSize=11;orthogonalLoop=1;jettySize=auto;html=1;endArrow=diamondThin;endFill=0;startSize=14;endSize=14;sourcePerimeterSpacing=0;targetPerimeterSpacing=0;entryX=0.977;entryY=0.006;entryDx=0;entryDy=0;entryPerimeter=0;" parent="WIyWlLk6GJQsqaUBKTNV-1" edge="1" target="19">
                    <mxGeometry relative="1" as="geometry">
                        <Array as="points">
                            <mxPoint x="1045" y="155"/>
                            <mxPoint x="1045" y="590"/>
                            <mxPoint x="1064" y="590"/>
                        </Array>
                        <mxPoint x="1065.0000000000005" y="598" as="targetPoint"/>
                        <mxPoint x="1015" y="154.9655172413793" as="sourcePoint"/>
                    </mxGeometry>
                </mxCell>
                <mxCell id="Sy4ABJMf8QMetGnbk_ve-90" value="0..1" style="text;html=1;align=center;verticalAlign=middle;resizable=0;points=[];autosize=1;strokeColor=none;fillColor=none;" parent="WIyWlLk6GJQsqaUBKTNV-1" vertex="1">
                    <mxGeometry x="840" y="578" width="40" height="20" as="geometry"/>
                </mxCell>
                <mxCell id="Sy4ABJMf8QMetGnbk_ve-91" value="1" style="text;html=1;align=center;verticalAlign=middle;resizable=0;points=[];autosize=1;strokeColor=none;fillColor=none;" parent="WIyWlLk6GJQsqaUBKTNV-1" vertex="1">
                    <mxGeometry x="360" y="170" width="20" height="20" as="geometry"/>
                </mxCell>
                <mxCell id="Sy4ABJMf8QMetGnbk_ve-89" style="edgeStyle=orthogonalEdgeStyle;rounded=0;jumpStyle=arc;jumpSize=11;orthogonalLoop=1;jettySize=auto;html=1;endArrow=diamondThin;endFill=1;startSize=14;endSize=14;sourcePerimeterSpacing=0;targetPerimeterSpacing=0;" parent="WIyWlLk6GJQsqaUBKTNV-1" source="Sy4ABJMf8QMetGnbk_ve-4" edge="1">
                    <mxGeometry relative="1" as="geometry">
                        <Array as="points">
                            <mxPoint x="330" y="170"/>
                            <mxPoint x="330" y="570"/>
                            <mxPoint x="830" y="570"/>
                            <mxPoint x="830" y="598"/>
                        </Array>
                        <mxPoint x="960.0000000000005" y="598" as="targetPoint"/>
                    </mxGeometry>
                </mxCell>
                <mxCell id="Sy4ABJMf8QMetGnbk_ve-103" style="edgeStyle=orthogonalEdgeStyle;rounded=0;jumpStyle=arc;jumpSize=11;orthogonalLoop=1;jettySize=auto;html=1;endArrow=open;endFill=0;startSize=14;endSize=14;sourcePerimeterSpacing=0;targetPerimeterSpacing=0;dashed=1;" parent="WIyWlLk6GJQsqaUBKTNV-1" source="Sy4ABJMf8QMetGnbk_ve-93" target="Sy4ABJMf8QMetGnbk_ve-45" edge="1">
                    <mxGeometry relative="1" as="geometry">
                        <Array as="points">
                            <mxPoint x="460" y="540"/>
                            <mxPoint x="460" y="540"/>
                        </Array>
                    </mxGeometry>
                </mxCell>
                <mxCell id="31" style="edgeStyle=orthogonalEdgeStyle;rounded=0;orthogonalLoop=1;jettySize=auto;html=1;entryX=0.672;entryY=-0.023;entryDx=0;entryDy=0;entryPerimeter=0;endArrow=none;endFill=0;" edge="1" parent="WIyWlLk6GJQsqaUBKTNV-1" source="Sy4ABJMf8QMetGnbk_ve-93" target="27">
                    <mxGeometry relative="1" as="geometry"/>
                </mxCell>
                <mxCell id="Sy4ABJMf8QMetGnbk_ve-93" value="Reporte" style="swimlane;fontStyle=1;align=center;verticalAlign=top;childLayout=stackLayout;horizontal=1;startSize=26;horizontalStack=0;resizeParent=1;resizeParentMax=0;resizeLast=0;collapsible=1;marginBottom=0;hachureGap=4;pointerEvents=0;fillColor=#cce5ff;strokeColor=#36393d;" parent="WIyWlLk6GJQsqaUBKTNV-1" vertex="1">
                    <mxGeometry x="345" y="598" width="215" height="132" as="geometry"/>
                </mxCell>
                <mxCell id="Sy4ABJMf8QMetGnbk_ve-94" value="+ FechaInicio : DateTIme&#10;+ FechaFin : DateTime&#10;+ Transacciones : Historial" style="text;strokeColor=none;fillColor=none;align=left;verticalAlign=top;spacingLeft=4;spacingRight=4;overflow=hidden;rotatable=0;points=[[0,0.5],[1,0.5]];portConstraint=eastwest;fontStyle=0" parent="Sy4ABJMf8QMetGnbk_ve-93" vertex="1">
                    <mxGeometry y="26" width="215" height="54" as="geometry"/>
                </mxCell>
                <mxCell id="Sy4ABJMf8QMetGnbk_ve-95" value="" style="line;strokeWidth=1;fillColor=none;align=left;verticalAlign=middle;spacingTop=-1;spacingLeft=3;spacingRight=3;rotatable=0;labelPosition=right;points=[];portConstraint=eastwest;" parent="Sy4ABJMf8QMetGnbk_ve-93" vertex="1">
                    <mxGeometry y="80" width="215" height="8" as="geometry"/>
                </mxCell>
                <mxCell id="Sy4ABJMf8QMetGnbk_ve-98" value="+ GenerarReporte(IUsuario) : Reporte" style="text;strokeColor=none;fillColor=none;align=left;verticalAlign=top;spacingLeft=4;spacingRight=4;overflow=hidden;rotatable=0;points=[[0,0.5],[1,0.5]];portConstraint=eastwest;fontStyle=4" parent="Sy4ABJMf8QMetGnbk_ve-93" vertex="1">
                    <mxGeometry y="88" width="215" height="22" as="geometry"/>
                </mxCell>
                <mxCell id="Sy4ABJMf8QMetGnbk_ve-96" value="+ ImprimirReporte() : string" style="text;strokeColor=none;fillColor=none;align=left;verticalAlign=top;spacingLeft=4;spacingRight=4;overflow=hidden;rotatable=0;points=[[0,0.5],[1,0.5]];portConstraint=eastwest;" parent="Sy4ABJMf8QMetGnbk_ve-93" vertex="1">
                    <mxGeometry y="110" width="215" height="22" as="geometry"/>
                </mxCell>
                <mxCell id="Sy4ABJMf8QMetGnbk_ve-101" value="1" style="text;html=1;align=center;verticalAlign=middle;resizable=0;points=[];autosize=1;strokeColor=none;fillColor=none;" parent="WIyWlLk6GJQsqaUBKTNV-1" vertex="1">
                    <mxGeometry x="560" y="670" width="20" height="20" as="geometry"/>
                </mxCell>
                <mxCell id="Sy4ABJMf8QMetGnbk_ve-102" style="edgeStyle=orthogonalEdgeStyle;rounded=0;jumpStyle=arc;jumpSize=11;orthogonalLoop=1;jettySize=auto;html=1;endArrow=open;endFill=0;startSize=14;endSize=14;sourcePerimeterSpacing=0;targetPerimeterSpacing=0;dashed=1;" parent="WIyWlLk6GJQsqaUBKTNV-1" source="Sy4ABJMf8QMetGnbk_ve-93" target="Sy4ABJMf8QMetGnbk_ve-32" edge="1">
                    <mxGeometry relative="1" as="geometry">
                        <mxPoint x="670" y="673" as="sourcePoint"/>
                        <mxPoint x="630" y="-14" as="targetPoint"/>
                        <Array as="points">
                            <mxPoint x="580" y="664"/>
                            <mxPoint x="580" y="-50"/>
                        </Array>
                    </mxGeometry>
                </mxCell>
                <mxCell id="Sy4ABJMf8QMetGnbk_ve-104" value="DataAccess" style="swimlane;fontStyle=1;align=center;verticalAlign=top;childLayout=stackLayout;horizontal=1;startSize=26;horizontalStack=0;resizeParent=1;resizeParentMax=0;resizeLast=0;collapsible=1;marginBottom=0;hachureGap=4;pointerEvents=0;fillColor=#cce5ff;strokeColor=#36393d;" parent="WIyWlLk6GJQsqaUBKTNV-1" vertex="1">
                    <mxGeometry x="80" y="430" width="210" height="170" as="geometry"/>
                </mxCell>
                <mxCell id="Sy4ABJMf8QMetGnbk_ve-109" value="- Database : IDatabase" style="text;strokeColor=none;fillColor=none;align=left;verticalAlign=top;spacingLeft=4;spacingRight=4;overflow=hidden;rotatable=0;points=[[0,0.5],[1,0.5]];portConstraint=eastwest;" parent="Sy4ABJMf8QMetGnbk_ve-104" vertex="1">
                    <mxGeometry y="26" width="210" height="24" as="geometry"/>
                </mxCell>
                <mxCell id="Sy4ABJMf8QMetGnbk_ve-111" value="+ Instancia() : DataAccess" style="text;strokeColor=none;fillColor=none;align=left;verticalAlign=top;spacingLeft=4;spacingRight=4;overflow=hidden;rotatable=0;points=[[0,0.5],[1,0.5]];portConstraint=eastwest;fontStyle=4" parent="Sy4ABJMf8QMetGnbk_ve-104" vertex="1">
                    <mxGeometry y="50" width="210" height="24" as="geometry"/>
                </mxCell>
                <mxCell id="Sy4ABJMf8QMetGnbk_ve-105" value="" style="line;strokeWidth=1;fillColor=none;align=left;verticalAlign=middle;spacingTop=-1;spacingLeft=3;spacingRight=3;rotatable=0;labelPosition=right;points=[];portConstraint=eastwest;" parent="Sy4ABJMf8QMetGnbk_ve-104" vertex="1">
                    <mxGeometry y="74" width="210" height="8" as="geometry"/>
                </mxCell>
                <mxCell id="Sy4ABJMf8QMetGnbk_ve-106" value="- DataAccess()&#10;+ Insertar&lt;T&gt;(T) : void&#10;+ Actualizar&lt;T&gt;(T) : void&#10;+ Obtener&lt;T&gt;() : T[]&#10;+ Eliminar&lt;T&gt;(T) : void" style="text;strokeColor=none;fillColor=none;align=left;verticalAlign=top;spacingLeft=4;spacingRight=4;overflow=hidden;rotatable=0;points=[[0,0.5],[1,0.5]];portConstraint=eastwest;" parent="Sy4ABJMf8QMetGnbk_ve-104" vertex="1">
                    <mxGeometry y="82" width="210" height="88" as="geometry"/>
                </mxCell>
                <mxCell id="Sy4ABJMf8QMetGnbk_ve-107" style="edgeStyle=orthogonalEdgeStyle;rounded=0;jumpStyle=arc;jumpSize=11;orthogonalLoop=1;jettySize=auto;html=1;endArrow=open;endFill=0;startSize=14;endSize=14;sourcePerimeterSpacing=0;targetPerimeterSpacing=0;dashed=1;" parent="WIyWlLk6GJQsqaUBKTNV-1" source="Sy4ABJMf8QMetGnbk_ve-45" target="Sy4ABJMf8QMetGnbk_ve-104" edge="1">
                    <mxGeometry relative="1" as="geometry">
                        <mxPoint x="462.5" y="608" as="sourcePoint"/>
                        <mxPoint x="462.5" y="510" as="targetPoint"/>
                        <Array as="points">
                            <mxPoint x="310" y="465"/>
                            <mxPoint x="310" y="465"/>
                        </Array>
                    </mxGeometry>
                </mxCell>
                <mxCell id="Sy4ABJMf8QMetGnbk_ve-108" style="edgeStyle=orthogonalEdgeStyle;rounded=0;jumpStyle=arc;jumpSize=11;orthogonalLoop=1;jettySize=auto;html=1;endArrow=diamondThin;endFill=0;startSize=14;endSize=14;sourcePerimeterSpacing=0;targetPerimeterSpacing=0;" parent="WIyWlLk6GJQsqaUBKTNV-1" source="Sy4ABJMf8QMetGnbk_ve-59" target="Sy4ABJMf8QMetGnbk_ve-104" edge="1">
                    <mxGeometry relative="1" as="geometry">
                        <mxPoint x="472.5" y="520" as="sourcePoint"/>
                        <mxPoint x="472.5" y="618" as="targetPoint"/>
                        <Array as="points">
                            <mxPoint x="210" y="570"/>
                            <mxPoint x="210" y="570"/>
                        </Array>
                    </mxGeometry>
                </mxCell>
                <mxCell id="Sy4ABJMf8QMetGnbk_ve-110" value="1" style="text;html=1;align=center;verticalAlign=middle;resizable=0;points=[];autosize=1;strokeColor=none;fillColor=none;" parent="WIyWlLk6GJQsqaUBKTNV-1" vertex="1">
                    <mxGeometry x="220" y="600" width="20" height="20" as="geometry"/>
                </mxCell>
                <mxCell id="Sy4ABJMf8QMetGnbk_ve-116" style="edgeStyle=orthogonalEdgeStyle;rounded=0;jumpStyle=arc;jumpSize=11;orthogonalLoop=1;jettySize=auto;html=1;dashed=1;endArrow=open;endFill=0;startSize=14;endSize=14;sourcePerimeterSpacing=0;targetPerimeterSpacing=0;" parent="WIyWlLk6GJQsqaUBKTNV-1" source="Sy4ABJMf8QMetGnbk_ve-112" target="Sy4ABJMf8QMetGnbk_ve-17" edge="1">
                    <mxGeometry relative="1" as="geometry">
                        <Array as="points">
                            <mxPoint x="380" y="345"/>
                            <mxPoint x="380" y="345"/>
                        </Array>
                    </mxGeometry>
                </mxCell>
                <mxCell id="Sy4ABJMf8QMetGnbk_ve-118" style="edgeStyle=orthogonalEdgeStyle;rounded=0;jumpStyle=arc;jumpSize=11;orthogonalLoop=1;jettySize=auto;html=1;dashed=1;endArrow=open;endFill=0;startSize=14;endSize=14;sourcePerimeterSpacing=0;targetPerimeterSpacing=0;" parent="WIyWlLk6GJQsqaUBKTNV-1" source="Sy4ABJMf8QMetGnbk_ve-112" target="Sy4ABJMf8QMetGnbk_ve-32" edge="1">
                    <mxGeometry relative="1" as="geometry">
                        <Array as="points">
                            <mxPoint x="60" y="-90"/>
                            <mxPoint x="700" y="-90"/>
                        </Array>
                    </mxGeometry>
                </mxCell>
                <mxCell id="Sy4ABJMf8QMetGnbk_ve-112" value="GestorInvitaciones" style="swimlane;fontStyle=1;align=center;verticalAlign=top;childLayout=stackLayout;horizontal=1;startSize=26;horizontalStack=0;resizeParent=1;resizeParentMax=0;resizeLast=0;collapsible=1;marginBottom=0;hachureGap=4;pointerEvents=0;fillColor=#fad9d5;strokeColor=#ae4132;" parent="WIyWlLk6GJQsqaUBKTNV-1" vertex="1">
                    <mxGeometry x="-10" y="220" width="250" height="156" as="geometry"/>
                </mxCell>
                <mxCell id="Sy4ABJMf8QMetGnbk_ve-115" value="- EnlacesInvitacionGenerados: String[]&#10;+ Instancia: GestorInvitacion" style="text;strokeColor=none;fillColor=none;align=left;verticalAlign=top;spacingLeft=4;spacingRight=4;overflow=hidden;rotatable=0;points=[[0,0.5],[1,0.5]];portConstraint=eastwest;" parent="Sy4ABJMf8QMetGnbk_ve-112" vertex="1">
                    <mxGeometry y="26" width="250" height="30" as="geometry"/>
                </mxCell>
                <mxCell id="Sy4ABJMf8QMetGnbk_ve-113" value="" style="line;strokeWidth=1;fillColor=none;align=left;verticalAlign=middle;spacingTop=-1;spacingLeft=3;spacingRight=3;rotatable=0;labelPosition=right;points=[];portConstraint=eastwest;" parent="Sy4ABJMf8QMetGnbk_ve-112" vertex="1">
                    <mxGeometry y="56" width="250" height="20" as="geometry"/>
                </mxCell>
                <mxCell id="Sy4ABJMf8QMetGnbk_ve-114" value="+ EnviarInvitacion(string)&#10;+ RegistrarNuevoUsuario(string) : IUsuario&#10;- ValidarInvitacion(string)&#10;- ArmarMensajeInvitacion(string)&#10;- GestorInvitaciones()" style="text;strokeColor=none;fillColor=none;align=left;verticalAlign=top;spacingLeft=4;spacingRight=4;overflow=hidden;rotatable=0;points=[[0,0.5],[1,0.5]];portConstraint=eastwest;" parent="Sy4ABJMf8QMetGnbk_ve-112" vertex="1">
                    <mxGeometry y="76" width="250" height="80" as="geometry"/>
                </mxCell>
                <mxCell id="sCdzmuLS9Rb2ymIEupGs-2" value="1" style="text;html=1;align=center;verticalAlign=middle;resizable=0;points=[];autosize=1;strokeColor=none;fillColor=none;" parent="WIyWlLk6GJQsqaUBKTNV-1" vertex="1">
                    <mxGeometry x="610" y="-20" width="20" height="20" as="geometry"/>
                </mxCell>
                <mxCell id="sCdzmuLS9Rb2ymIEupGs-3" value="1" style="text;html=1;align=center;verticalAlign=middle;resizable=0;points=[];autosize=1;strokeColor=none;fillColor=none;" parent="WIyWlLk6GJQsqaUBKTNV-1" vertex="1">
                    <mxGeometry x="220" y="650" width="20" height="20" as="geometry"/>
                </mxCell>
                <mxCell id="sCdzmuLS9Rb2ymIEupGs-9" value="&lt;span style=&quot;&quot;&gt;Las Ventas asociadas a 2 Historiales estÃ¡n&lt;/span&gt;&lt;br style=&quot;&quot;&gt;&lt;span style=&quot;&quot;&gt;siempre asociadas a los Historiales de un&lt;/span&gt;&lt;br style=&quot;&quot;&gt;&lt;span style=&quot;&quot;&gt;Emprendedor y una Empresa&lt;/span&gt;" style="shape=note;whiteSpace=wrap;html=1;backgroundOutline=1;darkOpacity=0.05;size=16;align=left;" parent="WIyWlLk6GJQsqaUBKTNV-1" vertex="1">
                    <mxGeometry x="930" y="770" width="260" height="64" as="geometry"/>
                </mxCell>
                <mxCell id="sCdzmuLS9Rb2ymIEupGs-11" style="edgeStyle=orthogonalEdgeStyle;rounded=0;jumpStyle=arc;jumpSize=11;orthogonalLoop=1;jettySize=auto;html=1;endArrow=open;endFill=0;startSize=14;endSize=14;sourcePerimeterSpacing=0;targetPerimeterSpacing=0;dashed=1;" parent="WIyWlLk6GJQsqaUBKTNV-1" source="Sy4ABJMf8QMetGnbk_ve-93" target="Sy4ABJMf8QMetGnbk_ve-49" edge="1">
                    <mxGeometry relative="1" as="geometry">
                        <Array as="points">
                            <mxPoint x="530" y="540"/>
                        </Array>
                        <mxPoint x="470" y="608" as="sourcePoint"/>
                        <mxPoint x="470" y="530" as="targetPoint"/>
                    </mxGeometry>
                </mxCell>
                <mxCell id="sCdzmuLS9Rb2ymIEupGs-12" value="Santiago" style="rounded=0;whiteSpace=wrap;html=1;align=center;fillColor=#fad9d5;strokeColor=#ae4132;" parent="WIyWlLk6GJQsqaUBKTNV-1" vertex="1">
                    <mxGeometry x="90" y="-160" width="120" height="40" as="geometry"/>
                </mxCell>
                <mxCell id="sCdzmuLS9Rb2ymIEupGs-13" value="Dana" style="rounded=0;whiteSpace=wrap;html=1;align=center;fillColor=#60a917;strokeColor=#2D7600;fontColor=#ffffff;" parent="WIyWlLk6GJQsqaUBKTNV-1" vertex="1">
                    <mxGeometry x="230" y="-160" width="120" height="40" as="geometry"/>
                </mxCell>
                <mxCell id="sCdzmuLS9Rb2ymIEupGs-14" value="Maximiliano" style="rounded=0;whiteSpace=wrap;html=1;align=center;gradientColor=#b3b3b3;fillColor=#f5f5f5;strokeColor=#666666;" parent="WIyWlLk6GJQsqaUBKTNV-1" vertex="1">
                    <mxGeometry x="370" y="-160" width="120" height="40" as="geometry"/>
                </mxCell>
                <mxCell id="sCdzmuLS9Rb2ymIEupGs-15" value="Marcelo" style="rounded=0;whiteSpace=wrap;html=1;align=center;fillColor=#cce5ff;strokeColor=#36393d;" parent="WIyWlLk6GJQsqaUBKTNV-1" vertex="1">
                    <mxGeometry x="510" y="-160" width="120" height="40" as="geometry"/>
                </mxCell>
                <mxCell id="8" style="edgeStyle=orthogonalEdgeStyle;rounded=0;orthogonalLoop=1;jettySize=auto;html=1;exitX=0.5;exitY=1;exitDx=0;exitDy=0;dashed=1;endArrow=open;endFill=0;" parent="WIyWlLk6GJQsqaUBKTNV-1" source="0" edge="1">
                    <mxGeometry relative="1" as="geometry">
                        <mxPoint x="177" y="75" as="targetPoint"/>
                    </mxGeometry>
                </mxCell>
                <mxCell id="0" value="Habilitaciones" style="swimlane;fontStyle=1;align=center;verticalAlign=top;childLayout=stackLayout;horizontal=1;startSize=26;horizontalStack=0;resizeParent=1;resizeParentMax=0;resizeLast=0;collapsible=1;marginBottom=0;hachureGap=4;pointerEvents=0;fillColor=#60a917;strokeColor=#2D7600;fontColor=#ffffff;" parent="WIyWlLk6GJQsqaUBKTNV-1" vertex="1">
                    <mxGeometry x="80" y="-30" width="160" height="68" as="geometry"/>
                </mxCell>
                <mxCell id="1" value="+Habilitaciones: string" style="text;strokeColor=none;fillColor=none;align=left;verticalAlign=top;spacingLeft=4;spacingRight=4;overflow=hidden;rotatable=0;points=[[0,0.5],[1,0.5]];portConstraint=eastwest;" parent="0" vertex="1">
                    <mxGeometry y="26" width="160" height="34" as="geometry"/>
                </mxCell>
                <mxCell id="2" value="" style="line;strokeWidth=1;fillColor=none;align=left;verticalAlign=middle;spacingTop=-1;spacingLeft=3;spacingRight=3;rotatable=0;labelPosition=right;points=[];portConstraint=eastwest;" parent="0" vertex="1">
                    <mxGeometry y="60" width="160" height="8" as="geometry"/>
                </mxCell>
                <mxCell id="9" style="edgeStyle=orthogonalEdgeStyle;rounded=0;orthogonalLoop=1;jettySize=auto;html=1;exitX=0.5;exitY=1;exitDx=0;exitDy=0;entryX=0.75;entryY=0;entryDx=0;entryDy=0;dashed=1;endArrow=open;endFill=0;" parent="WIyWlLk6GJQsqaUBKTNV-1" source="3" target="Sy4ABJMf8QMetGnbk_ve-0" edge="1">
                    <mxGeometry relative="1" as="geometry"/>
                </mxCell>
                <mxCell id="3" value="Categoria" style="swimlane;fontStyle=1;align=center;verticalAlign=top;childLayout=stackLayout;horizontal=1;startSize=26;horizontalStack=0;resizeParent=1;resizeParentMax=0;resizeLast=0;collapsible=1;marginBottom=0;hachureGap=4;pointerEvents=0;fillColor=#60a917;strokeColor=#2D7600;fontColor=#ffffff;" parent="WIyWlLk6GJQsqaUBKTNV-1" vertex="1">
                    <mxGeometry x="280" y="-30" width="160" height="68" as="geometry"/>
                </mxCell>
                <mxCell id="4" value="+Categorias: string" style="text;strokeColor=none;fillColor=none;align=left;verticalAlign=top;spacingLeft=4;spacingRight=4;overflow=hidden;rotatable=0;points=[[0,0.5],[1,0.5]];portConstraint=eastwest;" parent="3" vertex="1">
                    <mxGeometry y="26" width="160" height="34" as="geometry"/>
                </mxCell>
                <mxCell id="5" value="" style="line;strokeWidth=1;fillColor=none;align=left;verticalAlign=middle;spacingTop=-1;spacingLeft=3;spacingRight=3;rotatable=0;labelPosition=right;points=[];portConstraint=eastwest;" parent="3" vertex="1">
                    <mxGeometry y="60" width="160" height="8" as="geometry"/>
                </mxCell>
                <mxCell id="19" value="Venta" style="swimlane;fontStyle=1;align=center;verticalAlign=top;childLayout=stackLayout;horizontal=1;startSize=26;horizontalStack=0;resizeParent=1;resizeParentMax=0;resizeLast=0;collapsible=1;marginBottom=0;hachureGap=4;pointerEvents=0;fillColor=#60a917;strokeColor=#2D7600;fontColor=#ffffff;" parent="WIyWlLk6GJQsqaUBKTNV-1" vertex="1">
                    <mxGeometry x="820" y="598" width="250" height="130" as="geometry"/>
                </mxCell>
                <mxCell id="20" value="+ Fecha : DateTime&#10;+ Comprador : Emprendedor&#10;+ Publicacion : Publicacion" style="text;strokeColor=none;fillColor=none;align=left;verticalAlign=top;spacingLeft=4;spacingRight=4;overflow=hidden;rotatable=0;points=[[0,0.5],[1,0.5]];portConstraint=eastwest;fontStyle=4" parent="19" vertex="1">
                    <mxGeometry y="26" width="250" height="54" as="geometry"/>
                </mxCell>
                <mxCell id="21" value="" style="line;strokeWidth=1;fillColor=none;align=left;verticalAlign=middle;spacingTop=-1;spacingLeft=3;spacingRight=3;rotatable=0;labelPosition=right;points=[];portConstraint=eastwest;" parent="19" vertex="1">
                    <mxGeometry y="80" width="250" height="8" as="geometry"/>
                </mxCell>
                <mxCell id="22" value="+ Comprar(Emprendedor, Publicacion): void" style="text;strokeColor=none;fillColor=none;align=left;verticalAlign=top;spacingLeft=4;spacingRight=4;overflow=hidden;rotatable=0;points=[[0,0.5],[1,0.5]];portConstraint=eastwest;" parent="19" vertex="1">
                    <mxGeometry y="88" width="250" height="42" as="geometry"/>
                </mxCell>
                <mxCell id="23" value="RegistroUsuario" style="swimlane;fontStyle=1;align=center;verticalAlign=top;childLayout=stackLayout;horizontal=1;startSize=26;horizontalStack=0;resizeParent=1;resizeParentMax=0;resizeLast=0;collapsible=1;marginBottom=0;hachureGap=4;pointerEvents=0;fillColor=#f5f5f5;strokeColor=#666666;gradientColor=#b3b3b3;" vertex="1" parent="WIyWlLk6GJQsqaUBKTNV-1">
                    <mxGeometry x="1050" y="10" width="310" height="140" as="geometry"/>
                </mxCell>
                <mxCell id="24" value="+ NombreUsuario: string&#10;+ Contrasenia: string&#10;+ Usuario: IUsuario" style="text;strokeColor=none;fillColor=none;align=left;verticalAlign=top;spacingLeft=4;spacingRight=4;overflow=hidden;rotatable=0;points=[[0,0.5],[1,0.5]];portConstraint=eastwest;fontStyle=4" vertex="1" parent="23">
                    <mxGeometry y="26" width="310" height="54" as="geometry"/>
                </mxCell>
                <mxCell id="25" value="" style="line;strokeWidth=1;fillColor=none;align=left;verticalAlign=middle;spacingTop=-1;spacingLeft=3;spacingRight=3;rotatable=0;labelPosition=right;points=[];portConstraint=eastwest;" vertex="1" parent="23">
                    <mxGeometry y="80" width="310" height="8" as="geometry"/>
                </mxCell>
                <mxCell id="26" value="+" style="text;strokeColor=none;fillColor=none;align=left;verticalAlign=top;spacingLeft=4;spacingRight=4;overflow=hidden;rotatable=0;points=[[0,0.5],[1,0.5]];portConstraint=eastwest;" vertex="1" parent="23">
                    <mxGeometry y="88" width="310" height="52" as="geometry"/>
                </mxCell>
                <mxCell id="27" value="&lt;&lt;interfaz&gt;&gt;&#10;IPrintable" style="swimlane;fontStyle=1;align=center;verticalAlign=top;childLayout=stackLayout;horizontal=1;startSize=40;horizontalStack=0;resizeParent=1;resizeParentMax=0;resizeLast=0;collapsible=1;marginBottom=0;hachureGap=4;pointerEvents=0;fillColor=#cce5ff;strokeColor=#36393d;" vertex="1" parent="WIyWlLk6GJQsqaUBKTNV-1">
                    <mxGeometry x="345" y="790" width="160" height="70" as="geometry"/>
                </mxCell>
                <mxCell id="28" value="" style="line;strokeWidth=1;fillColor=none;align=left;verticalAlign=middle;spacingTop=-1;spacingLeft=3;spacingRight=3;rotatable=0;labelPosition=right;points=[];portConstraint=eastwest;" vertex="1" parent="27">
                    <mxGeometry y="40" width="160" height="8" as="geometry"/>
                </mxCell>
                <mxCell id="29" value="+ GetTextToPrint(): string" style="text;strokeColor=none;fillColor=none;align=left;verticalAlign=top;spacingLeft=4;spacingRight=4;overflow=hidden;rotatable=0;points=[[0,0.5],[1,0.5]];portConstraint=eastwest;" vertex="1" parent="27">
                    <mxGeometry y="48" width="160" height="22" as="geometry"/>
                </mxCell>
            </root>
        </mxGraphModel>
    </diagram>
</mxfile>